<svg xmlns="http://www.w3.org/2000/svg" viewBox="-17.6 -1.6 56 56" fill="none" role="img" aria-label="Juice">
  <g fill="#F78146">
    <path d="M22.9428 9.46909C23.3352 9.4691 23.6894 9.48786 23.9955 9.53159C24.2891 9.57354 24.6002 9.64642 24.8676 9.79037L25.4105 10.0824L23.4105 25.5872C23.2928 26.7957 23.1425 27.9597 22.9603 29.0794L22.9437 29.2113C22.8733 29.8219 22.7668 30.3964 22.6234 30.931C19.4111 46.8528 9.78246 52.93 3.87929 48.9203C-6.16681 42.0962 5.01892 23.7831 17.8588 22.0882C17.885 22.0703 17.9105 22.0514 17.9369 22.0335C18.1152 20.5038 18.5274 16.9576 19.1742 11.3949L19.2045 11.1361L19.3685 10.9339C20.2049 9.90246 21.4653 9.46909 22.9428 9.46909ZM18.2943 27.6302C8.36265 29.0492 2.38911 41.3708 5.89882 44.2083C9.1451 46.8326 16.6515 38.01 18.2943 27.6302ZM22.9408 10.3656C23.675 10.3656 24.1746 10.4376 24.4398 10.5804L23.058 21.2923L23.06 21.2943L24.4428 10.5794C24.1775 10.4366 23.6774 10.3656 22.9428 10.3656H22.9408Z"/>
    <circle cx="23.6535" cy="3.36038" r="3.36038"/>
  </g>
</svg>
